<?xml version="1.0" encoding="iso-8859-1"?>
<!-- Uploaded to: SVG Repo, www.svgrepo.com, Generator: SVG Repo Mixer Tools -->
<svg fill="#000000" height="800px" width="800px" version="1.1" id="Layer_1" xmlns="http://www.w3.org/2000/svg" xmlns:xlink="http://www.w3.org/1999/xlink" 
	 viewBox="0 0 512 512" xml:space="preserve">
<g>
	<g>
		<path d="M457.076,97.573l38.981-38.981c4.967-4.966,7.702-11.568,7.702-18.591s-2.734-13.625-7.7-18.591
			c-4.967-4.966-11.569-7.702-18.591-7.702c-7.023,0-13.626,2.736-18.591,7.702l-38.419,38.419C374.423,21.192,316.374,0,256.006,0
			C114.844,0,0,114.839,0,255.994C0,397.156,114.844,512,256.006,512C397.162,512,512,397.156,512,255.994
			C512,198.48,492.545,142.562,457.076,97.573z M471.847,34.38c1.502-1.502,3.496-2.328,5.62-2.328c2.122,0,4.119,0.827,5.621,2.33
			c1.502,1.502,2.327,3.497,2.327,5.62s-0.827,4.119-2.328,5.62L289.494,239.214c-1.598-2.084-3.334-4.095-5.24-6.002
			c-1.906-1.906-3.917-3.642-6.001-5.239L471.847,34.38z M261.411,218.874c-21.246-7.382-45.817-2.606-62.761,14.338
			c-23.601,23.601-23.601,62.004,0,85.604c11.801,11.801,27.302,17.701,42.803,17.701c15.501,0,31.002-5.9,42.801-17.701
			c0.001,0,0.001,0,0.001,0c16.942-16.943,21.719-41.512,14.337-62.76l122.629-122.63c26.183,35.284,40.506,78.417,40.506,122.566
			c0,113.435-92.287,205.722-205.721,205.722c-113.435,0-205.722-92.287-205.722-205.722S142.571,50.272,256.006,50.272
			c46.985,0,92.327,16.008,128.747,45.261L261.411,218.874z M271.285,246.182c16.449,16.45,16.449,43.215,0.001,59.665
			c-16.451,16.45-43.215,16.449-59.666,0c-7.968-7.968-12.356-18.563-12.356-29.833c0-11.269,4.388-21.864,12.356-29.832
			c8.226-8.225,19.028-12.336,29.833-12.336C252.256,233.845,263.061,237.959,271.285,246.182z M256.006,493.657
			c-131.048,0-237.663-106.615-237.663-237.663c0-131.041,106.615-237.651,237.663-237.651c55.505,0,108.897,19.293,151.431,54.505
			l-9.65,9.65c-39.931-32.665-89.937-50.569-141.781-50.569c-123.549,0-224.065,100.516-224.065,224.065
			s100.516,224.065,224.065,224.065s224.065-100.516,224.065-224.065c0-48.992-16.197-96.836-45.75-135.666l9.695-9.695
			c32.078,41.465,49.641,92.693,49.641,145.36C493.657,387.042,387.047,493.657,256.006,493.657z"/>
	</g>
</g>
<g>
	<g>
		<path d="M203.411,196.749l-17.12-44.023c-1.837-4.721-7.151-7.061-11.872-5.224c-4.72,1.836-7.06,7.151-5.224,11.872l17.12,44.023
			c1.411,3.629,4.878,5.85,8.55,5.85c1.105,0,2.229-0.202,3.321-0.626C202.907,206.785,205.246,201.469,203.411,196.749z"/>
	</g>
</g>
<g>
	<g>
		<path d="M159.636,238.243l-41.577-19.566c-4.586-2.16-10.047-0.19-12.203,4.394c-2.157,4.583-0.19,10.047,4.394,12.203
			l41.577,19.566c1.262,0.594,2.591,0.876,3.898,0.876c3.442,0,6.742-1.948,8.304-5.269
			C166.187,245.864,164.221,240.399,159.636,238.243z"/>
	</g>
</g>
<g>
	<g>
		<path d="M229.103,357.21c-5.065,0-9.171,4.106-9.171,9.171v53.806c0,5.065,4.106,9.171,9.171,9.171s9.171-4.106,9.171-9.171
			v-53.806C238.275,361.317,234.168,357.21,229.103,357.21z"/>
	</g>
</g>
<g>
	<g>
		<path d="M317.327,368.461l-17.12-24.457c-2.904-4.149-8.624-5.161-12.773-2.254c-4.15,2.904-5.159,8.624-2.255,12.773
			l17.12,24.456c1.784,2.548,4.63,3.913,7.522,3.913c1.815,0,3.65-0.538,5.251-1.658
			C319.222,378.329,320.231,372.61,317.327,368.461z"/>
	</g>
</g>
<g>
	<g>
		<path d="M344.052,291.176h-24.457c-5.066,0-9.171,4.106-9.171,9.172c0,5.065,4.106,9.171,9.171,9.171h24.457
			c5.066,0,9.171-4.106,9.171-9.171C353.224,295.282,349.118,291.176,344.052,291.176z"/>
	</g>
</g>
</svg>