<svg xmlns="http://www.w3.org/2000/svg" style="display: none;">
  <symbol id="guitar" viewBox="0 0 24 24">
    <path d="M12 2C9.24 2 7 4.24 7 7c0 1.2.44 2.3 1.17 3.15L4 17l3 3 3-3 3-3c.85.73 1.95 1.17 3.15 1.17 2.76 0 5-2.24 5-5s-2.24-5-5-5h-1V2h-2v5h-1z"/>
  </symbol>

  <symbol id="drum" viewBox="0 0 24 24">
    <path d="M4 6v12c0 .55.45 1 1 1h14c.55 0 1-.45 1-1V6H4zm2 2h12v8H6V8zm5-5c-1.1 0-2 .9-2 2h4c0-1.1-.9-2-2-2z"/>
  </symbol>

  <symbol id="keyboard" viewBox="0 0 24 24">
    <path d="M3 5v0h18V5H3zm16 12H5V7h14v10z"/>
    <path d="M7 8h2v8H7zm4 0h2v8h-2z"/>
  </symbol>

  <symbol id="trumpet" viewBox="0 0 24 24">
    <path d="M2 12h2v2H2v-2zm0-4h2v2H2V8zm6-2h10v4h-2v2h2v4H8v-2H6v2H4v-4h2v-2H4V8h2V6z"/>
  </symbol>

  <symbol id="banjo" viewBox="0 0 24 24">
    <path d="M12 2a8 8 0 100 16 8 8 0 000-16zm0 2a6 6 0 110 12 6 6 0 010-12zm-1 2h2v4h-2zm0 6h2v2h-2z"/>
  </symbol>

  <symbol id="flute" viewBox="0 0 24 24">
    <path d="M3 11h18v2H3v-2zm2 4h2v2H5v-2zm4 0h2v2H9v-2zm4 0h2v2h-2v-2z"/>
  </symbol>

  <symbol id="triangle" viewBox="0 0 24 24">
    <path d="M12 4L4 20h16L12 4zm0 1.65L17.74 18H6.26L12 5.65zM11 17h2v2h-2v-2z"/>
  </symbol>

  <symbol id="tambourine" viewBox="0 0 24 24">
    <path d="M12 2a10 10 0 100 20 10 10 0 000-20zm0 2a8 8 0 110 16 8 8 0 010-16zm-4 4a1 1 0 100 2 1 1 0 000-2zm8 0a1 1 0 100 2 1 1 0 000-2zm-8 8a1 1 0 100 2 1 1 0 000-2zm8 0a1 1 0 100 2 1 1 0 000-2z"/>
  </symbol>
</svg>
